<?xml version="1.0" standalone="no"?>
<!DOCTYPE svg PUBLIC "-//W3C//DTD SVG 20010904//EN"
 "http://www.w3.org/TR/2001/REC-SVG-20010904/DTD/svg10.dtd">
<svg version="1.0" xmlns="http://www.w3.org/2000/svg"
 width="500.000000pt" height="500.000000pt" viewBox="0 0 500.000000 500.000000"
 preserveAspectRatio="xMidYMid meet">
<metadata>
Created by potrace 1.15, written by Peter Selinger 2001-2017
</metadata>
<g transform="translate(0.000000,500.000000) scale(0.100000,-0.100000)"
fill="#000000" stroke="none">
<path d="M0 2500 l0 -2500 2500 0 2500 0 0 2500 0 2500 -2500 0 -2500 0 0
-2500z m697 1978 c30 -34 78 -132 108 -223 49 -149 74 -204 187 -416 9 -17 27
-42 40 -56 37 -40 237 -130 328 -148 41 -8 177 -53 202 -66 10 -5 37 -14 60
-19 81 -17 223 -57 245 -68 12 -7 31 -12 43 -12 35 0 422 -114 513 -151 68
-28 97 -19 270 79 178 101 296 155 403 183 104 27 267 36 331 18 29 -8 115
-58 217 -126 93 -62 174 -113 179 -113 6 0 22 -11 36 -24 25 -24 29 -24 96
-16 98 13 419 10 485 -3 37 -8 55 -17 55 -27 0 -16 -4 -18 -310 -121 -99 -34
-195 -69 -215 -79 -46 -24 -180 -165 -256 -271 -33 -46 -113 -163 -178 -259
-262 -395 -347 -499 -519 -637 -173 -140 -358 -234 -494 -253 -38 -5 -104 -15
-148 -22 -98 -16 -366 -12 -456 7 -77 15 -82 11 -74 -65 4 -48 10 -60 44 -90
59 -54 158 -132 202 -160 22 -14 68 -43 102 -66 34 -22 96 -60 137 -84 41 -23
83 -49 92 -57 23 -21 203 -30 261 -14 68 20 176 18 215 -2 32 -17 43 -46 20
-48 -7 -1 -31 -1 -53 0 -30 2 -36 -1 -25 -8 9 -6 84 -11 181 -11 l167 0 31
-29 c30 -28 42 -71 20 -71 -6 0 -22 9 -36 20 -36 28 -77 25 -108 -6 -19 -18
-33 -24 -48 -20 -12 3 -47 8 -77 12 -46 4 -52 3 -35 -7 29 -18 44 -41 45 -66
0 -28 -10 -29 -41 -4 -36 27 -51 30 -82 14 -25 -12 -38 -12 -105 2 -42 10 -88
19 -102 22 -62 12 -170 47 -220 70 l-55 26 -150 -12 c-192 -14 -221 -14 -237
3 -11 11 -14 11 -23 -1 -9 -12 -16 -12 -37 -2 -37 17 -62 6 -46 -20 21 -35 -5
-51 -86 -52 l-71 -2 50 -8 c28 -5 121 -11 208 -13 176 -6 212 -17 230 -69 13
-41 -6 -58 -33 -29 -28 30 -64 28 -94 -5 l-25 -27 -68 13 c-37 7 -79 17 -93
22 -26 10 -162 29 -168 23 -8 -7 101 -55 147 -65 28 -6 62 -20 77 -31 31 -25
57 -80 48 -102 -8 -21 -13 -20 -38 3 -24 22 -44 27 -68 17 -12 -6 -57 11 -142
53 -68 34 -128 61 -133 61 -6 0 -26 12 -46 28 -65 49 -150 97 -169 94 -10 -2
-39 9 -64 23 -34 20 -73 31 -152 41 -59 8 -132 22 -163 30 -63 18 -129 66
-129 94 0 23 -30 30 -77 18 -21 -5 -44 -10 -52 -11 -26 -4 -23 23 7 53 27 27
37 30 90 30 54 0 64 -4 102 -35 23 -19 50 -35 61 -35 10 0 53 -11 96 -25 69
-23 156 -35 168 -23 2 2 -14 35 -37 72 -29 49 -37 70 -28 76 8 5 6 9 -7 12
-13 3 -35 41 -68 114 -89 201 -144 309 -178 354 -19 25 -40 63 -47 85 -7 22
-19 52 -28 66 -12 22 -13 37 -4 90 10 56 17 69 52 101 l40 36 -50 54 c-27 29
-50 56 -50 60 0 4 -9 10 -20 13 -11 3 -20 11 -20 16 0 5 -33 60 -73 122 -40
62 -78 125 -85 140 -7 17 -17 25 -24 21 -8 -5 -9 -2 -5 10 4 10 -9 47 -33 95
-53 106 -97 240 -111 342 -7 48 -13 268 -16 517 -4 442 -2 486 38 707 5 28 16
101 24 162 15 119 36 178 60 169 8 -3 17 -1 20 4 10 16 30 11 52 -12z"/>
<path d="M870 4004 c0 -3 20 -66 45 -141 25 -74 45 -141 45 -148 0 -17 91
-128 139 -172 50 -44 35 -48 -25 -8 -49 33 -93 77 -142 140 -33 43 -10 -1 30
-57 36 -50 132 -124 215 -164 28 -13 57 -31 63 -39 7 -8 17 -15 22 -15 19 0
-6 23 -63 59 -71 45 -68 62 3 20 27 -16 47 -25 43 -20 -3 6 -32 26 -65 46 -33
20 -60 40 -60 44 0 9 -23 34 -99 105 -55 52 -63 80 -8 30 67 -61 80 -67 21 -9
-64 63 -83 100 -134 268 -18 57 -30 82 -30 61z"/>
<path d="M1480 3398 c19 -5 53 -14 75 -20 38 -11 39 -12 15 -19 -23 -6 -23 -7
8 -8 57 -2 277 -43 287 -53 7 -7 -3 -9 -30 -4 -58 9 -237 34 -330 47 -44 5
-91 12 -105 14 -23 4 -22 3 5 -10 17 -8 50 -14 75 -15 25 0 77 -7 115 -16 130
-28 154 -31 157 -23 3 9 38 0 120 -33 32 -12 73 -18 130 -18 159 0 503 -42
525 -64 14 -14 -6 -14 -62 -1 -84 19 -235 35 -405 42 -109 4 -157 11 -195 25
-27 11 -79 21 -115 23 -36 2 -60 2 -55 0 69 -22 165 -49 185 -52 14 -1 113 -7
220 -12 207 -10 306 -22 382 -47 43 -14 50 -14 83 2 19 9 38 21 41 26 4 5 -8
3 -24 -6 -38 -20 -42 -20 -42 -2 0 8 -18 18 -42 24 -124 31 -483 76 -545 69
-53 -6 -68 9 -18 19 59 11 267 -13 503 -57 68 -13 108 -16 119 -10 13 7 9 9
-17 9 -19 -1 -91 11 -160 24 -193 39 -276 50 -390 53 -58 1 -114 7 -125 12
-11 6 -36 14 -55 18 -36 7 -92 19 -241 55 -87 20 -155 27 -89 8z"/>
<path d="M3253 3169 c-41 -7 -129 -45 -218 -91 -88 -46 -151 -82 -177 -99 -14
-11 -29 -19 -32 -19 -9 0 -229 -142 -250 -162 -11 -10 -26 -18 -35 -18 -26 0
-105 -52 -91 -60 16 -10 134 46 187 88 21 16 72 52 113 80 216 143 354 215
500 261 91 29 92 38 3 20z"/>
<path d="M3075 3135 c-16 -7 -66 -30 -110 -50 -135 -61 -301 -155 -355 -201
-51 -43 -86 -60 -59 -28 11 14 9 15 -27 9 -21 -4 -53 -13 -71 -21 -21 -8 -33
-9 -35 -2 -2 6 -13 8 -27 3 -17 -5 -20 -9 -11 -15 7 -4 10 -12 6 -18 -11 -19
19 -19 62 0 23 11 55 18 70 16 24 -4 23 -5 -16 -16 -24 -7 -52 -22 -62 -32
-12 -12 -26 -17 -37 -13 -16 6 -16 5 -4 -10 11 -14 16 -15 40 -3 14 7 44 22
66 32 22 10 68 37 102 60 108 73 306 191 419 248 60 30 102 55 94 55 -8 0 -28
-6 -45 -14z"/>
<path d="M3250 3096 c-36 -12 -130 -62 -210 -110 -80 -49 -197 -120 -260 -159
-126 -76 -152 -95 -144 -108 3 -5 -7 -14 -23 -21 -26 -11 -26 -12 -7 -15 15
-3 59 23 142 84 100 73 171 122 256 175 99 63 253 144 326 171 13 5 13 5 0 5
-8 0 -44 -10 -80 -22z"/>
<path d="M3138 3090 c-38 -16 -140 -72 -246 -135 -55 -33 -202 -132 -234 -156
-20 -16 -73 -48 -118 -71 -52 -26 -78 -44 -71 -51 15 -15 77 11 136 59 30 25
87 63 127 86 40 22 138 82 218 133 80 51 163 102 185 113 84 44 85 55 3 22z"/>
<path d="M3294 3077 c-43 -17 -150 -74 -209 -112 -27 -17 -68 -43 -90 -56 -22
-13 -41 -27 -43 -31 -2 -4 -7 -8 -12 -8 -13 0 -149 -94 -271 -186 -75 -56 -84
-61 -76 -41 8 21 4 21 -36 1 -42 -22 -42 -21 -28 -38 11 -13 23 -10 93 26 45
22 120 71 169 108 48 37 123 89 166 115 43 25 116 71 163 101 120 77 176 105
197 98 14 -4 15 -4 4 4 -11 8 -10 12 5 21 25 14 7 13 -32 -2z"/>
<path d="M3290 3015 c-14 -8 -34 -14 -45 -15 -17 0 -118 -57 -195 -110 -62
-43 -153 -100 -158 -100 -4 0 -48 -32 -97 -71 -50 -39 -109 -80 -132 -90 -46
-20 -60 -35 -17 -19 14 6 30 8 35 5 4 -3 30 11 57 32 50 40 188 129 427 276
77 48 147 91 155 96 24 15 -2 12 -30 -4z"/>
<path d="M3355 2987 c-28 -18 -63 -42 -80 -54 -497 -351 -591 -415 -627 -431
-16 -6 -28 -16 -28 -22 0 -16 26 -12 41 7 8 9 37 27 66 39 28 13 97 56 151 96
55 40 146 107 203 148 150 110 313 231 324 241 18 18 -1 8 -50 -24z"/>
<path d="M3258 2957 c-26 -18 -70 -45 -98 -62 -29 -16 -67 -40 -86 -52 -19
-13 -38 -23 -43 -23 -4 0 -16 -9 -26 -20 -10 -11 -22 -20 -27 -20 -13 0 -184
-110 -236 -153 -26 -20 -53 -35 -61 -32 -14 6 -106 -34 -98 -42 3 -2 22 3 42
12 21 8 40 13 43 10 6 -6 7 -6 -49 -38 -43 -24 -47 -25 -62 -9 -12 11 -17 12
-17 4 0 -8 -5 -10 -12 -6 -9 5 -10 4 -3 -3 6 -6 24 -15 41 -21 26 -8 37 -7 60
9 16 10 90 59 164 108 74 49 173 118 220 152 47 34 128 91 180 127 88 60 131
93 120 91 -3 0 -26 -14 -52 -32z"/>
<path d="M3305 2909 c-54 -43 -147 -111 -319 -232 -61 -43 -133 -97 -160 -119
-26 -23 -58 -42 -71 -43 -23 -3 -79 -35 -72 -41 6 -7 97 36 172 80 38 22 119
79 180 125 60 45 158 120 218 164 59 45 107 87 107 94 0 17 3 18 -55 -28z"/>
<path d="M3180 2764 c-52 -41 -132 -104 -178 -139 -46 -36 -89 -65 -96 -65 -7
0 -25 -9 -39 -20 -14 -11 -29 -20 -33 -20 -14 0 -154 -112 -177 -142 -19 -24
-27 -27 -47 -20 -19 7 -35 3 -75 -20 -66 -39 -82 -56 -25 -28 60 30 95 40 111
30 9 -6 31 8 69 43 31 29 85 70 121 91 67 41 177 121 194 141 15 17 146 105
157 105 13 0 64 40 52 40 -5 1 9 16 31 35 76 65 29 43 -65 -31z"/>
<path d="M3290 2734 c-41 -41 -93 -87 -114 -102 -22 -15 -40 -35 -42 -46 -1
-10 -18 -35 -36 -55 -23 -25 -26 -30 -8 -17 14 11 53 49 87 85 34 36 64 63 67
61 3 -3 -28 -48 -69 -100 -41 -52 -75 -96 -75 -98 0 -8 35 24 103 96 39 40 72
70 75 67 6 -6 -31 -52 -107 -135 -33 -36 -61 -72 -60 -80 0 -10 7 -6 22 11 12
15 44 53 71 85 28 33 65 75 84 96 19 20 31 41 28 46 -4 6 18 36 48 66 30 31
48 56 41 56 -7 0 -45 -34 -83 -75 -39 -41 -73 -75 -76 -75 -18 0 2 28 69 99
65 68 79 91 56 91 -4 0 -40 -34 -81 -76z"/>
<path d="M2272 2726 c9 -10 25 -19 35 -20 24 -2 113 -48 113 -58 0 -14 -24 -9
-59 13 -18 11 -36 18 -39 15 -8 -8 19 -36 34 -36 8 0 14 -4 14 -10 0 -14 -11
-12 -56 9 -32 16 -40 17 -42 5 -2 -8 -8 -14 -14 -14 -6 0 -3 -9 7 -20 10 -11
23 -20 29 -20 6 0 2 7 -8 15 -27 21 -16 26 27 14 45 -12 57 -29 22 -29 -20 0
-26 -4 -21 -15 3 -9 0 -15 -9 -15 -14 0 -13 -9 1 -57 5 -20 3 -23 -20 -23 -14
0 -26 -3 -26 -8 0 -4 -14 -13 -30 -20 -38 -17 -60 -59 -67 -128 -4 -41 -2 -60
12 -80 14 -22 15 -28 4 -35 -10 -6 -10 -9 -2 -9 21 0 24 19 7 46 -10 15 -13
29 -8 32 5 4 9 25 8 47 0 22 5 46 13 53 7 8 11 17 9 20 -2 4 2 13 10 20 8 7
14 9 14 5 0 -4 5 -2 12 5 6 6 17 8 27 3 9 -5 25 -5 36 0 16 6 14 8 -12 8 -18
1 -33 6 -33 12 0 12 49 8 85 -6 16 -6 16 -4 -3 10 -13 9 -21 23 -18 30 2 7 -1
18 -7 25 -9 9 -4 11 23 6 31 -6 33 -5 18 7 -10 8 -18 20 -18 28 0 10 3 10 12
1 7 -7 19 -12 27 -12 12 0 12 3 3 12 -18 18 -14 27 11 20 22 -5 22 -5 3 16
-15 17 -16 22 -5 22 8 0 21 -6 28 -12 11 -10 13 -10 7 0 -10 17 18 15 57 -3
l32 -16 -25 20 c-14 11 -42 35 -63 54 -39 36 -101 71 -127 70 -8 0 -22 4 -30
10 -10 8 -10 5 2 -7z"/>
<path d="M1180 2543 c-18 -7 -58 -39 -118 -95 -32 -30 -41 -45 -36 -60 5 -16
3 -19 -14 -14 -27 9 -46 -17 -38 -50 6 -22 4 -25 -9 -20 -12 4 -14 2 -7 -11 6
-9 6 -29 1 -46 -5 -17 -7 -32 -5 -34 5 -6 33 40 38 62 2 11 10 19 16 18 16 -4
15 18 -3 41 -19 26 -19 40 0 32 24 -9 54 15 77 58 l20 40 14 -25 c7 -13 13
-34 14 -47 0 -13 4 -20 10 -17 11 7 40 -18 40 -34 0 -6 -5 -11 -11 -11 -5 0
-8 -4 -4 -9 3 -5 1 -12 -5 -16 -6 -3 -13 0 -16 8 -2 7 -11 14 -19 14 -10 0
-12 -9 -9 -31 l5 -31 -26 30 c-20 21 -25 24 -20 10 16 -43 17 -55 6 -55 -6 0
-16 12 -22 28 -7 17 -13 22 -16 14 -3 -8 -1 -24 5 -35 6 -12 12 -29 15 -37 2
-8 11 -15 19 -15 15 0 88 -79 88 -96 0 -15 -18 -10 -30 9 -9 14 -10 12 -5 -10
4 -22 2 -28 -11 -28 -30 0 29 -38 72 -45 l39 -8 -27 22 c-16 13 -28 30 -28 39
0 12 3 13 12 4 7 -7 21 -12 33 -12 18 1 19 1 2 11 -9 6 -15 14 -12 18 6 11
-23 36 -43 36 -15 0 -62 58 -62 76 0 20 19 7 38 -24 11 -19 26 -34 33 -35 8 0
25 -3 38 -6 20 -5 23 -2 18 20 -3 19 -1 24 10 20 7 -3 21 3 30 14 15 17 19 17
44 4 15 -8 34 -14 41 -14 7 0 47 -18 89 -40 l76 -40 -5 27 c-4 23 -2 25 17 20
35 -9 13 11 -27 24 -20 7 -54 23 -75 36 -22 14 -41 23 -43 20 -5 -5 62 -50 89
-60 9 -3 17 -13 17 -21 0 -13 -4 -14 -27 -4 -16 7 -41 23 -57 36 -17 13 -40
28 -53 33 -23 9 -32 29 -12 29 5 0 8 4 4 9 -9 16 15 23 33 10 9 -8 6 0 -8 15
-19 22 -21 28 -7 23 9 -4 25 -10 35 -13 16 -5 16 -5 0 6 -21 13 -24 36 -5 43
10 4 10 6 0 6 -7 1 -13 7 -13 14 0 6 -13 21 -28 31 l-27 20 18 -22 c23 -25 14
-50 -11 -30 -13 11 -14 11 -7 -2 13 -21 16 -50 6 -50 -5 0 -23 12 -40 26 -40
34 -40 19 1 -23 43 -45 27 -55 -20 -12 l-37 34 30 -34 c20 -22 26 -35 18 -38
-7 -3 -13 -11 -13 -19 0 -8 -7 -14 -15 -14 -8 0 -15 5 -15 11 0 6 -11 24 -25
41 -28 33 -34 58 -8 37 15 -13 15 -12 3 10 -11 21 -10 23 3 18 11 -4 14 -2 10
9 -3 9 1 14 12 14 9 0 15 5 13 12 -5 15 30 51 42 43 16 -10 11 11 -5 25 -13
11 -20 9 -38 -9 -29 -26 -41 -27 -27 -1 9 16 8 18 -5 14 -8 -4 -15 -14 -15
-23 0 -21 -22 -71 -32 -71 -14 0 -19 20 -8 40 9 17 8 20 -12 17 -14 -1 -23 4
-26 15 -4 21 46 90 59 82 5 -3 9 2 9 10 0 9 -1 16 -2 15 -2 0 -10 -3 -18 -6z"/>
<path d="M2936 2497 c-16 -12 -52 -43 -80 -68 -28 -25 -56 -45 -62 -42 -15 5
-169 -132 -202 -180 -31 -47 -62 -61 -62 -28 0 12 6 21 14 21 7 0 19 7 26 15
16 19 16 19 -50 -6 -74 -28 -403 -194 -436 -220 -38 -30 -357 -39 -451 -12
-53 15 -77 18 -139 22 -13 0 -24 9 -27 21 -4 16 -1 19 16 16 12 -2 16 -1 10 1
-7 3 -13 9 -13 15 0 6 -8 17 -17 25 -16 13 -16 14 10 8 23 -4 27 -2 27 15 0
19 -4 20 -37 14 -48 -9 -73 -31 -41 -36 38 -5 33 -26 -6 -23 -47 4 -46 -8 2
-28 l37 -15 -30 -1 c-23 -2 -13 -7 44 -26 43 -14 86 -22 102 -18 15 3 49 -2
76 -10 65 -22 245 -40 307 -32 35 5 112 38 250 106 109 55 210 108 225 118 14
10 40 23 57 28 46 16 41 -15 -5 -34 -61 -24 -406 -197 -412 -207 -13 -17 -152
-56 -198 -55 -67 1 -100 17 -37 18 70 1 54 7 -39 15 -56 4 -75 3 -65 -4 12 -8
13 -12 2 -19 -17 -10 18 -17 128 -27 65 -5 84 -3 141 19 78 29 275 123 344
164 28 16 88 47 134 68 64 30 97 54 140 99 31 32 83 80 117 105 228 172 262
201 237 201 -5 0 -21 -10 -37 -23z"/>
<path d="M2263 2362 c-34 -5 -61 -119 -33 -137 23 -14 7 -31 -42 -43 -28 -6
-55 -17 -58 -22 -27 -43 -399 -76 -484 -44 -16 6 -17 4 -7 -14 11 -21 17 -21
139 -18 140 5 253 24 358 60 73 26 274 112 283 122 13 14 -76 -9 -111 -28 -31
-18 -40 -19 -53 -8 -9 8 -13 21 -9 32 3 10 0 26 -8 35 -11 15 -10 16 10 11 19
-5 21 -4 11 8 -9 11 -8 14 5 14 10 0 15 4 12 9 -4 5 0 11 6 14 19 7 6 13 -19
9z"/>
<path d="M2420 2250 c-199 -94 -337 -148 -423 -166 -109 -21 -303 -29 -365
-14 -107 25 -161 15 -75 -14 99 -34 340 -41 447 -14 47 12 76 -6 30 -19 -37
-10 -384 -11 -444 -1 -33 6 -40 5 -27 -3 38 -22 139 -34 297 -34 l165 1 185
93 c102 51 190 96 195 100 6 4 43 21 82 37 40 16 73 32 73 37 0 4 -17 0 -37
-9 -21 -8 -58 -22 -83 -31 -24 -8 -76 -30 -115 -48 -38 -18 -100 -46 -138 -64
-37 -17 -70 -37 -73 -46 -5 -11 -10 -12 -26 -4 -11 6 -16 14 -12 19 12 10 311
145 344 155 37 11 91 41 125 70 17 14 28 25 25 24 -3 0 -70 -32 -150 -69z"/>
<path d="M2710 2150 c-56 -55 -104 -100 -106 -100 -10 0 13 31 61 81 27 28 51
61 52 72 3 20 3 20 -17 2 -11 -10 -20 -21 -20 -24 0 -3 -29 -37 -65 -75 -36
-38 -65 -76 -65 -85 0 -17 -38 -46 -48 -37 -3 3 0 18 7 32 6 15 10 28 9 30 -8
8 -28 -14 -31 -34 -5 -31 -14 -37 -33 -21 -14 12 -14 14 2 26 35 25 13 17
-231 -87 -55 -24 -116 -44 -135 -46 -19 -1 -46 -7 -60 -13 -20 -8 -14 -9 30
-5 89 8 138 24 259 81 63 29 118 50 123 45 13 -13 0 -38 -28 -52 -13 -7 -22
-15 -19 -18 2 -3 10 0 17 5 7 6 39 19 71 29 35 11 63 27 72 41 17 26 38 31 29
8 -4 -9 0 -15 9 -15 16 0 40 24 32 32 -7 6 81 88 94 88 6 0 8 6 5 14 -3 7 18
38 46 70 29 31 50 56 47 56 -2 0 -50 -45 -107 -100z"/>
<path d="M1149 1858 c-61 -47 -66 -59 -51 -115 16 -59 119 -291 177 -398 24
-44 59 -113 79 -152 37 -73 84 -132 121 -151 11 -6 77 -13 146 -17 114 -7 131
-6 183 14 67 25 128 27 150 5 9 -8 16 -11 16 -5 0 6 -12 18 -26 27 -23 15 -32
16 -75 5 -28 -7 -53 -11 -56 -8 -11 12 7 37 39 57 42 25 100 25 155 0 56 -25
243 -34 243 -11 0 4 -19 21 -42 36 -92 61 -136 92 -223 156 -96 71 -135 92
-203 109 -33 8 -49 20 -72 53 -16 23 -38 54 -50 69 -28 37 -41 85 -34 125 5
28 10 32 28 27 12 -3 30 -6 40 -8 10 -1 21 -8 26 -15 5 -9 10 -10 14 -2 4 6
15 7 29 2 23 -9 68 1 51 12 -6 3 -41 11 -80 17 -102 17 -285 81 -414 144 -63
31 -118 56 -121 56 -4 0 -26 -15 -50 -32z"/>
</g>
</svg>
